#!OML:ASF X:\für Bonn\!DataBase\2005_08_12_Daniel\c3d\Daniel.ASF
:FULLY-SPECIFIED
:DEGREES
311
root 1.88587 16.775 -0.153616 -569.104 -97.7952 560.138
lowerback 16.5722 -0.854253 -2.24626
upperback 5.33375 -1.95549 -3.43528
thorax -3.64933 -1.08529 -1.96489
lowerneck 0.39772 -1.19001 0.948809
upperneck 7.25247 -1.92519 3.40903
head 2.23545 -0.89477 0.878841
rclavicle -9.83984e-015 -1.19271e-014
rhumerus -62.4108 -34.491 -38.5412
rradius 14.3385
rwrist 32.308
rhand -15.9898 727.305
rfingers 7.12502
rthumb 10.21 -22.4271
lclavicle -9.83984e-015 -1.19271e-014
lhumerus -260.717 134.869 -177.116
lradius 17.1919
lwrist -49.4231
lhand -16.5448 2.59474
lfingers 7.12502
lthumb 9.6746 32.3526
rfemur -0.855765 5.89789 17.5877
rtibia 36.7413
rfoot -31.3936 -9.09475
rtoes -11.2174
lfemur -187.189 193.688 -198.292
ltibia 41.3991
lfoot 333.687 -4.11041
ltoes -0.182372
312
root 1.91726 16.7702 -0.174457 -568.603 -97.5838 559.581
lowerback 16.7593 -0.885468 -1.9353
upperback 5.34572 -1.95099 -3.37021
thorax -3.74369 -1.08254 -2.06995
lowerneck 0.724237 -1.12782 0.846321
upperneck 7.32112 -1.83069 3.27206
head 2.19733 -0.857259 0.85592
rclavicle 5.86415e-015 2.54444e-014
rhumerus -59.5795 -32.862 -43.3038
rradius 15.4592
rwrist 27.9743
rhand -16.2326 727.397
rfingers 7.12502
rthumb 9.97576 -22.3468
lclavicle 5.86415e-015 2.54444e-014
lhumerus -255.462 135.063 -169.255
lradius 18.2785
lwrist -43.8886
lhand -16.864 2.79223
lfingers 7.12502
lthumb 9.3666 32.5641
rfemur -0.950566 6.47684 17.9785
rtibia 36.8113
rfoot -31.5683 -9.33749
rtoes -10.9167
lfemur -187.621 192.951 -197.804
ltibia 41.8548
lfoot 334.153 -4.86094
ltoes -0.0809601
313
root 1.95009 16.7634 -0.194676 -567.961 -97.3704 558.865
lowerback 16.9851 -0.909839 -1.60877
upperback 5.34935 -1.93597 -3.31463
thorax -3.86767 -1.07478 -2.19548
lowerneck 1.07592 -1.07063 0.845434
upperneck 7.41002 -1.74392 3.09616
head 2.16004 -0.82218 0.803182
rclavicle 0 -1.98785e-014
rhumerus -57.0844 -31.0229 -47.7857
rradius 16.7787
rwrist 23.6521
rhand -16.2604 727.434
rfingers 7.12502
rthumb 9.94894 -22.311
lclavicle 0 -1.98785e-014
lhumerus -250.374 135.701 -161.728
lradius 19.5618
lwrist -38.4423
lhand -17.0567 3.04808
lfingers 7.12502
lthumb 9.18065 32.8282
rfemur -1.03489 7.03951 18.3884
rtibia 36.8993
rfoot -31.7538 -9.58609
rtoes -10.6421
lfemur -188.078 192.191 -197.291
ltibia 42.3618
lfoot 334.72 -5.6331
ltoes 0.0660036
314
root 1.98337 16.7571 -0.214609 -567.17 -97.1438 558.003
lowerback 17.2067 -0.923924 -1.29854
upperback 5.36113 -1.90738 -3.24274
thorax -3.9789 -1.06087 -2.29767
lowerneck 1.37603 -1.01956 0.957519
upperneck 7.50992 -1.66228 2.83876
head 2.13374 -0.787561 0.705199
rclavicle 1.13307e-014 3.18055e-015
rhumerus -54.8649 -29.1337 -51.8558
rradius 18.1945
rwrist 19.633
rhand -16.2394 727.408
rfingers 7.12502
rthumb 9.96916 -22.3358
lclavicle 1.13307e-014 3.18055e-015
lhumerus -245.611 136.686 -154.655
lradius 21.0879
lwrist -33.0414
lhand -17.1421 3.36963
lfingers 7.12502
lthumb 9.09821 33.1534
rfemur -1.12105 7.63299 18.8162
rtibia 36.9744
rfoot -31.9358 -9.83358
rtoes -10.3357
lfemur -188.569 191.405 -196.756
ltibia 42.9241
lfoot 335.339 -6.41273
ltoes 0.100122
315
root 2.01656 16.751 -0.233049 -566.531 -96.9444 557.285
lowerback 17.4463 -0.94477 -1.05834
upperback 5.36057 -1.89756 -3.15522
thorax -4.11034 -1.05634 -2.33953
lowerneck 1.67964 -0.965547 1.11507
upperneck 7.64084 -1.5752 2.53443
head 2.11657 -0.749816 0.585024
rclavicle -2.23633e-014 -1.59028e-014
rhumerus -52.8954 -27.1387 -55.5176
rradius 19.6803
rwrist 15.9502
rhand -16.1521 727.472
rfingers 7.12502
rthumb 10.0535 -22.2674
lclavicle -2.23633e-014 -1.59028e-014
lhumerus -241.37 137.935 -148.222
lradius 22.8125
lwrist -27.8302
lhand -17.1407 3.5932
lfingers 7.12502
lthumb 9.09955 33.3769
rfemur -1.18213 8.17629 19.1945
rtibia 37.0224
rfoot -32.0826 -10.0787
rtoes -10.0513
lfemur -189.089 190.618 -196.264
ltibia 43.5382
lfoot 336.084 -7.19689
ltoes 0.223791
316
root 2.04878 16.7479 -0.250625 -565.884 -96.7381 556.535
lowerback 17.6894 -0.953185 -0.816992
upperback 5.3778 -1.86922 -3.0508
thorax -4.22321 -1.04333 -2.36815
lowerneck 1.98882 -0.917226 1.27426
upperneck 7.75894 -1.49294 2.20978
head 2.09484 -0.714716 0.458376
rclavicle -8.24956e-015 7.15625e-015
rhumerus -51.22 -25.2909 -58.6523
rradius 21.2324
rwrist 12.8813
rhand -16.0483 727.622
rfingers 7.12502
rthumb 10.1535 -22.1129
lclavicle -8.24956e-015 7.15625e-015
lhumerus -237.639 139.25 -142.504
lradius 24.6715
lwrist -23.0379
lhand -17.0721 3.62438
lfingers 7.12502
lthumb 9.16578 33.4052
rfemur -1.17192 8.72705 19.5779
rtibia 37.0095
rfoot -32.2104 -10.3497
rtoes -9.81513
lfemur -189.62 189.776 -195.732
ltibia 44.2103
lfoot 336.967 -8.15565
ltoes 0.492736
